<?xml version="1.0" standalone="no"?>
<!DOCTYPE svg PUBLIC "-//W3C//DTD SVG 20010904//EN"
 "http://www.w3.org/TR/2001/REC-SVG-20010904/DTD/svg10.dtd">
<svg version="1.0" xmlns="http://www.w3.org/2000/svg"
 width="128.000000pt" height="128.000000pt" viewBox="0 0 128.000000 128.000000"
 preserveAspectRatio="xMidYMid meet">

<g transform="translate(0.000000,128.000000) scale(0.100000,-0.100000)"
fill="#000000" stroke="none">
<path d="M29 1071 l-30 -30 3 -128 c3 -106 6 -128 18 -128 11 0 16 13 18 48
l3 47 325 0 324 0 0 -330 0 -330 -307 0 c-176 0 -314 4 -323 10 -12 8 -16 51
-20 257 -4 212 -7 248 -20 248 -13 0 -15 -35 -18 -248 l-2 -248 29 -30 29 -29
582 0 582 0 29 30 c26 26 30 36 27 77 -2 35 -7 48 -18 48 -10 0 -17 -14 -20
-45 -3 -25 -9 -51 -13 -58 -6 -9 -67 -12 -248 -12 l-239 0 0 330 0 330 250 0
250 0 2 -247 c3 -213 5 -248 18 -248 13 0 15 44 18 328 l2 328 -30 30 c-27 27
-35 30 -87 27 -44 -2 -58 -7 -58 -18 0 -11 14 -16 50 -18 68 -4 85 -22 85 -89
l0 -53 -600 0 -600 0 0 53 c0 28 5 59 10 67 8 13 79 16 507 20 434 4 498 7
498 20 0 13 -63 15 -498 18 l-498 2 -30 -29z"/>
<path d="M100 1030 c-34 -34 -20 -80 27 -95 25 -7 73 32 73 60 0 21 -36 55
-60 55 -11 0 -29 -9 -40 -20z m50 -35 c0 -8 -7 -15 -15 -15 -16 0 -20 12 -8
23 11 12 23 8 23 -8z"/>
<path d="M247 1032 c-26 -28 -21 -69 9 -89 24 -15 29 -15 53 -2 16 9 27 25 29
43 7 55 -56 87 -91 48z m51 -39 c-4 -22 -22 -20 -26 1 -2 10 3 16 13 16 10 0
15 -7 13 -17z"/>
<path d="M389 1029 c-26 -26 -21 -57 14 -82 l27 -21 28 21 c15 11 28 29 30 41
4 25 -30 62 -58 62 -11 0 -29 -9 -41 -21z m51 -34 c0 -8 -4 -15 -9 -15 -13 0
-22 16 -14 24 11 11 23 6 23 -9z"/>
<path d="M806 769 c-33 -26 -33 -52 0 -78 21 -17 41 -21 93 -21 80 0 111 17
111 60 0 43 -31 60 -111 60 -52 0 -72 -4 -93 -21z m159 -39 c0 -11 -15 -16
-64 -18 -64 -3 -89 6 -76 28 4 7 32 10 73 8 52 -2 67 -6 67 -18z"/>
<path d="M417 753 c-3 -5 -35 -88 -72 -186 -49 -131 -64 -182 -56 -190 7 -7
14 -7 20 -2 12 13 141 352 141 371 0 15 -25 20 -33 7z"/>
<path d="M162 637 c-34 -34 -62 -67 -62 -72 0 -14 113 -125 127 -125 26 0 12
36 -34 82 l-47 48 53 54 c46 47 59 76 33 76 -4 0 -36 -28 -70 -63z"/>
<path d="M485 690 c-3 -6 19 -36 49 -68 l55 -58 -49 -49 c-49 -48 -62 -75 -37
-75 7 0 41 29 76 64 l64 65 -63 65 c-62 64 -82 77 -95 56z"/>
<path d="M812 633 c-18 -7 -32 -46 -25 -71 9 -34 46 -42 209 -42 159 0 185 5
204 40 11 21 -1 57 -24 72 -12 9 -344 9 -364 1z m348 -53 c0 -19 -7 -20 -164
-20 -158 0 -186 5 -171 30 4 6 72 10 171 10 157 0 164 -1 164 -20z"/>
<path d="M806 469 c-33 -26 -33 -43 -1 -75 25 -25 28 -26 151 -22 112 3 127 5
140 23 21 29 14 67 -16 82 -16 8 -67 13 -136 13 -98 0 -115 -3 -138 -21z m259
-39 c0 -12 -20 -15 -110 -18 -109 -2 -144 5 -130 27 4 8 44 11 123 9 96 -2
117 -6 117 -18z"/>
</g>
</svg>
