<svg width="128.000000pt" height="128.000000pt" viewBox="0 0 128.000000 128.000000" xmlns="http://www.w3.org/2000/svg">
  <g transform="translate(0.000000,128.000000) scale(0.100000,-0.100000)" fill="#f0e8f8" stroke="none">
    <path d="M1250 1065 c0 -8 7 -15 15 -15 8 0 15 7 15 15 0 8 -7 15 -15 15 -8 0
-15 -7 -15 -15z" />
    <path d="M267 1014 c-4 -4 -7 -16 -7 -26 0 -13 7 -18 26 -18 21 0 25 4 22 22
-3 23 -27 35 -41 22z" />
    <path d="M30 846 c0 -25 -4 -48 -10 -51 -13 -8 -13 -62 0 -70 6 -4 10 -96 10
-244 0 -218 2 -239 18 -254 16 -15 55 -17 335 -17 l317 0 0 340 0 340 -335 0
-335 0 0 -44z m410 -103 c0 -11 -128 -344 -135 -351 -18 -19 -6 24 53 181 37
97 70 177 75 177 4 0 7 -3 7 -7z m-253 -111 c-26 -26 -47 -54 -47 -62 0 -8 21
-36 47 -62 26 -26 45 -50 42 -53 -3 -2 -32 22 -64 55 l-59 60 59 60 c32 33 61
57 64 55 3 -3 -16 -27 -42 -53z m433 -67 c0 -16 -108 -120 -117 -112 -4 4 14
29 40 55 26 26 47 54 47 63 0 8 -20 35 -45 59 -25 24 -45 49 -45 54 0 6 27
-16 60 -49 33 -33 60 -64 60 -70z" />
    <path d="M730 550 l0 -340 244 0 c242 0 245 0 260 22 9 12 16 39 16 60 0 27 4
38 15 38 10 0 15 10 15 30 0 20 -5 30 -15 30 -13 0 -15 34 -15 250 l0 250
-260 0 -260 0 0 -340z m252 213 c22 -20 23 -41 1 -65 -13 -14 -31 -18 -85 -18
-55 0 -72 4 -88 20 -46 46 -7 80 89 80 46 0 70 -5 83 -17z m198 -153 c11 -11
20 -24 20 -30 0 -5 -9 -19 -20 -30 -18 -18 -33 -20 -185 -20 -152 0 -167 2
-185 20 -11 11 -20 26 -20 34 0 8 10 22 22 30 18 13 54 16 185 16 150 0 165
-2 183 -20z m-96 -146 c21 -20 20 -43 -1 -66 -14 -15 -32 -18 -135 -18 -105 0
-120 2 -138 20 -11 11 -20 26 -20 34 0 8 10 22 22 30 17 12 50 16 140 16 93 0
120 -3 132 -16z" />
    <path d="M0 215 c0 -8 7 -15 15 -15 8 0 15 7 15 15 0 8 -7 15 -15 15 -8 0 -15
-7 -15 -15z" />
    <path d="M1250 215 c0 -8 7 -15 15 -15 8 0 15 7 15 15 0 8 -7 15 -15 15 -8 0
-15 -7 -15 -15z" />
  </g>
  <g transform="translate(0.000000,128.000000) scale(0.100000,-0.100000)" fill="#fefefe" stroke="none">
    <path d="M0 1154 l0 -126 28 30 c20 21 41 32 73 37 34 5 448 3 984 -4 22 0 58
0 81 1 22 0 51 -5 65 -13 13 -7 27 -12 31 -11 4 1 5 -5 2 -13 -4 -8 -1 -15 5
-15 7 0 11 39 11 120 l0 120 -640 0 -640 0 0 -126z" />
    <path d="M1272 770 c0 -19 2 -27 5 -17 2 9 2 25 0 35 -3 9 -5 1 -5 -18z" />
    <path d="M0 760 c0 -17 5 -30 13 -30 7 0 12 13 12 30 0 17 -5 30 -12 30 -8 0
-13 -13 -13 -30z" />
    <path d="M1265 360 c0 -16 3 -30 8 -30 4 0 7 14 7 30 0 17 -3 30 -7 30 -5 0
-8 -13 -8 -30z" />
    <path d="M2 350 c0 -19 2 -27 5 -17 2 9 2 25 0 35 -3 9 -5 1 -5 -18z" />
    <path d="M1265 240 c-3 -5 -3 -15 0 -20 4 -6 3 -9 -2 -8 -4 1 -19 -4 -33 -12
-21 -13 -112 -15 -590 -15 -478 0 -569 2 -590 15 -14 8 -28 13 -32 12 -4 -1
-5 5 -2 13 4 8 1 15 -5 15 -7 0 -11 -39 -11 -120 l0 -120 640 0 640 0 0 125
c0 69 -2 125 -4 125 -3 0 -8 -4 -11 -10z" />
  </g>
  <g transform="translate(0.000000,128.000000) scale(0.100000,-0.100000)" fill="#000000" stroke="none">
    <path d="M63 1099 c-56 -16 -63 -38 -63 -187 0 -122 2 -133 18 -130 13 2 18
15 20 51 l3 47 325 0 324 0 0 -330 0 -330 -308 0 c-285 0 -310 1 -325 18 -14
16 -17 52 -19 257 -3 219 -5 240 -20 243 -17 3 -18 -14 -18 -248 0 -281 2
-291 69 -310 49 -13 1093 -13 1142 0 21 6 44 21 53 35 9 14 16 45 16 75 0 43
-3 50 -20 50 -16 0 -20 -7 -20 -38 0 -21 -7 -48 -16 -60 -15 -22 -19 -22 -250
-22 l-234 0 0 330 0 330 250 0 250 0 0 -250 c0 -243 1 -250 20 -250 20 0 20 7
20 334 0 333 0 333 -24 359 -15 17 -39 28 -69 32 -56 9 -87 0 -87 -26 0 -16 7
-19 45 -19 35 0 52 -6 70 -25 18 -18 25 -35 25 -65 l0 -40 -391 0 c-355 0
-389 1 -375 16 19 18 21 75 4 92 -16 16 -80 16 -96 0 -17 -17 -15 -74 4 -92
14 -15 12 -16 -25 -16 -40 0 -40 0 -23 30 15 27 16 32 2 57 -11 20 -25 29 -49
31 -60 6 -90 -46 -55 -96 15 -22 15 -22 -27 -22 -40 0 -41 1 -26 18 19 21 22
54 7 83 -12 21 -59 26 -91 9 -26 -14 -27 -84 -1 -99 14 -8 10 -10 -20 -11 -37
0 -38 1 -38 39 0 24 8 48 21 65 l20 26 490 0 c473 0 489 1 489 19 0 10 -7 22
-16 25 -25 10 -946 5 -981 -5z m237 -110 c0 -5 -7 -9 -15 -9 -15 0 -20 12 -9
23 8 8 24 -1 24 -14z m-150 1 c0 -5 -4 -10 -10 -10 -5 0 -10 5 -10 10 0 6 5
10 10 10 6 0 10 -4 10 -10z m290 0 c0 -5 -4 -10 -10 -10 -5 0 -10 5 -10 10 0
6 5 10 10 10 6 0 10 -4 10 -10z" />
    <path d="M803 775 c-29 -20 -30 -58 -3 -85 18 -18 31 -20 102 -18 75 3 82 5
101 31 21 27 21 27 0 55 -19 25 -26 27 -99 30 -59 2 -85 -1 -101 -13z m157
-45 c0 -6 -28 -10 -65 -10 -37 0 -65 4 -65 10 0 6 28 10 65 10 37 0 65 -4 65
-10z" />
    <path d="M424 762 c-16 -11 -146 -362 -140 -378 7 -19 23 -18 35 4 19 36 131
339 131 354 0 20 -12 29 -26 20z" />
    <path d="M150 634 l-63 -65 64 -65 c35 -35 69 -64 76 -64 31 0 21 26 -28 76
l-53 54 53 54 c49 50 59 76 27 76 -7 0 -41 -30 -76 -66z" />
    <path d="M484 689 c-3 -6 17 -35 47 -65 l53 -54 -47 -48 c-49 -50 -60 -82 -29
-82 18 0 132 110 132 127 0 13 -124 133 -137 133 -7 0 -15 -5 -19 -11z" />
    <path d="M802 624 c-28 -19 -29 -57 -2 -84 18 -18 33 -20 195 -20 162 0 177 2
195 20 11 11 20 29 20 40 0 11 -9 29 -20 40 -18 18 -33 20 -193 20 -140 0
-177 -3 -195 -16z m358 -44 c0 -6 -62 -10 -165 -10 -103 0 -165 4 -165 10 0 6
62 10 165 10 103 0 165 -4 165 -10z" />
    <path d="M802 474 c-28 -19 -29 -57 -2 -84 19 -19 31 -20 152 -18 128 3 131 4
150 29 17 23 18 30 8 50 -7 13 -18 27 -24 31 -6 4 -67 8 -136 8 -98 0 -130 -3
-148 -16z m258 -44 c0 -6 -45 -10 -115 -10 -70 0 -115 4 -115 10 0 6 45 10
115 10 70 0 115 -4 115 -10z" />
  </g>
  <g transform="translate(0.000000,128.000000) scale(0.100000,-0.100000)" fill="#9c71c1" stroke="none">
    <path d="M1050 1080 c0 -7 -170 -10 -489 -10 l-490 0 -20 -26 c-15 -19 -21
-41 -21 -75 l0 -49 610 0 610 0 0 50 c0 41 -5 56 -25 75 -18 19 -35 25 -70 25
-25 0 -45 5 -45 10 0 6 -13 10 -30 10 -16 0 -30 -4 -30 -10z m-866 -73 c8 -23
6 -31 -12 -49 -18 -18 -26 -20 -49 -12 -21 7 -29 17 -31 39 -4 34 21 57 58 53
17 -2 28 -12 34 -31z m142 8 c15 -23 15 -27 0 -51 -13 -18 -24 -24 -44 -22
-16 2 -32 13 -41 30 -14 24 -14 28 3 47 26 29 62 27 82 -4z m142 13 c28 -28 2
-88 -38 -88 -40 0 -66 60 -38 88 15 15 61 15 76 0z" />
  </g>
  <g transform="translate(0.000000,128.000000) scale(0.100000,-0.100000)" fill="#445761" stroke="none">
    <path d="M6 1054 c-5 -14 -4 -15 9 -4 17 14 19 20 6 20 -5 0 -12 -7 -15 -16z" />
    <path d="M1250 1066 c0 -2 8 -10 18 -17 15 -13 16 -12 3 4 -13 16 -21 21 -21
13z" />
    <path d="M1210 1056 c0 -2 8 -10 18 -17 15 -13 16 -12 3 4 -13 16 -21 21 -21
13z" />
    <path d="M260 995 c0 -8 2 -15 4 -15 2 0 6 7 10 15 3 8 1 15 -4 15 -6 0 -10
-7 -10 -15z" />
    <path d="M30 883 c0 -5 148 -7 330 -5 l330 3 0 -331 0 -330 -307 -3 -308 -2
313 -3 312 -2 0 340 0 340 -335 0 c-184 0 -335 -3 -335 -7z" />
    <path d="M730 550 l0 -340 238 2 237 3 -232 2 -233 3 0 331 0 330 255 -3 c140
-2 255 0 255 5 0 4 -117 7 -260 7 l-260 0 0 -340z" />
    <path d="M22 794 c-7 -8 -8 -14 -3 -14 10 0 25 19 20 25 -2 1 -10 -3 -17 -11z" />
    <path d="M26 727 c3 -10 9 -15 12 -12 3 3 0 11 -7 18 -10 9 -11 8 -5 -6z" />
    <path d="M0 236 c0 -2 8 -10 18 -17 15 -13 16 -12 3 4 -13 16 -21 21 -21 13z" />
    <path d="M1259 223 c-13 -16 -12 -17 4 -4 9 7 17 15 17 17 0 8 -8 3 -21 -13z" />
  </g>
  <g transform="translate(0.000000,128.000000) scale(0.100000,-0.100000)" fill="#21333d" stroke="none">
    <path d="M1096 1091 c-11 -17 23 -32 66 -28 l43 4 -49 1 c-38 2 -47 5 -42 17
6 16 -9 21 -18 6z" />
    <path d="M1050 1080 c0 -6 -174 -11 -487 -13 l-488 -2 486 -3 c422 -2 488 0
499 13 9 10 9 15 1 15 -6 0 -11 -4 -11 -10z" />
    <path d="M1272 1030 c0 -14 2 -19 5 -12 2 6 2 18 0 25 -3 6 -5 1 -5 -13z" />
    <path d="M1 1024 c0 -11 3 -14 6 -6 3 7 2 16 -1 19 -3 4 -6 -2 -5 -13z" />
    <path d="M120 1000 c0 -5 5 -10 10 -10 6 0 10 5 10 10 0 6 -4 10 -10 10 -5 0
-10 -4 -10 -10z" />
    <path d="M296 997 c3 -10 9 -15 12 -12 3 3 0 11 -7 18 -10 9 -11 8 -5 -6z" />
    <path d="M33 845 c0 -27 2 -38 4 -22 2 15 2 37 0 50 -2 12 -4 0 -4 -28z" />
    <path d="M1242 638 c-2 -240 -1 -258 16 -258 12 0 13 3 5 8 -9 6 -13 73 -16
257 l-2 250 -3 -257z" />
    <path d="M820 730 c0 -11 5 -20 10 -20 6 0 10 9 10 20 0 11 -4 20 -10 20 -5 0
-10 -9 -10 -20z" />
    <path d="M960 730 c0 -19 3 -21 12 -12 9 9 9 15 0 24 -9 9 -12 7 -12 -12z" />
    <path d="M0 730 c0 -5 7 -7 15 -4 19 8 19 14 0 14 -8 0 -15 -4 -15 -10z" />
    <path d="M396 713 c-6 -14 -5 -15 5 -6 7 7 10 15 7 18 -3 3 -9 -2 -12 -12z" />
    <path d="M34 490 c0 -129 2 -182 3 -117 2 64 2 170 0 235 -1 64 -3 11 -3 -118z" />
    <path d="M229 663 c-13 -16 -12 -17 4 -4 9 7 17 15 17 17 0 8 -8 3 -21 -13z" />
    <path d="M405 629 c-4 -6 -5 -12 -2 -15 2 -3 7 2 10 11 7 17 1 20 -8 4z" />
    <path d="M150 585 c-7 -9 -11 -17 -9 -20 3 -2 10 5 17 15 14 24 10 26 -8 5z" />
    <path d="M150 505 c35 -36 67 -65 69 -65 3 0 -24 29 -59 65 -35 36 -67 65 -69
65 -3 0 24 -29 59 -65z" />
    <path d="M370 540 c0 -7 3 -10 7 -7 3 4 3 10 0 14 -4 3 -7 0 -7 -7z" />
    <path d="M340 460 c0 -7 3 -10 7 -7 3 4 3 10 0 14 -4 3 -7 0 -7 -7z" />
    <path d="M1079 383 c-13 -16 -12 -17 4 -4 16 13 21 21 13 21 -2 0 -10 -8 -17
-17z" />
    <path d="M1240 300 c0 -22 2 -40 4 -40 2 0 6 18 8 40 2 22 0 40 -4 40 -5 0 -8
-18 -8 -40z" />
    <path d="M2 250 c0 -14 2 -19 5 -12 2 6 2 18 0 25 -3 6 -5 1 -5 -13z" />
    <path d="M1271 254 c0 -11 3 -14 6 -6 3 7 2 16 -1 19 -3 4 -6 -2 -5 -13z" />
    <path d="M73 213 c4 -3 10 -3 14 0 3 4 0 7 -7 7 -7 0 -10 -3 -7 -7z" />
    <path d="M1193 213 c4 -3 10 -3 14 0 3 4 0 7 -7 7 -7 0 -10 -3 -7 -7z" />
  </g>
  <g transform="translate(0.000000,128.000000) scale(0.100000,-0.100000)" fill="#dcdcdd" stroke="none">
    <path d="M560 1103 c332 -2 471 -6 487 -15 17 -8 32 -8 60 0 21 7 49 14 63 16
14 3 5 2 -20 0 -25 -3 -56 -4 -70 -3 -14 0 -241 2 -505 3 l-480 1 465 -2z" />
    <path d="M20 1075 c-7 -8 -8 -15 -2 -15 5 0 15 7 22 15 7 8 8 15 2 15 -5 0
-15 -7 -22 -15z" />
    <path d="M1240 1075 c7 -9 15 -13 17 -11 7 7 -7 26 -19 26 -6 0 -6 -6 2 -15z" />
    <path d="M0 1040 c0 -7 3 -10 7 -7 3 4 3 10 0 14 -4 3 -7 0 -7 -7z" />
    <path d="M1270 1040 c0 -7 3 -10 7 -7 3 4 3 10 0 14 -4 3 -7 0 -7 -7z" />
    <path d="M0 790 c0 -5 5 -10 11 -10 5 0 7 5 4 10 -3 6 -8 10 -11 10 -2 0 -4
-4 -4 -10z" />
    <path d="M0 240 c0 -7 3 -10 7 -7 3 4 3 10 0 14 -4 3 -7 0 -7 -7z" />
    <path d="M1270 240 c0 -7 3 -10 7 -7 3 4 3 10 0 14 -4 3 -7 0 -7 -7z" />
    <path d="M20 212 c0 -12 19 -26 26 -19 2 2 -2 10 -11 17 -9 8 -15 8 -15 2z" />
    <path d="M1240 205 c-8 -9 -8 -15 -2 -15 12 0 26 19 19 26 -2 2 -10 -2 -17
-11z" />
    <path d="M362 173 c153 -2 403 -2 555 0 153 1 28 2 -277 2 -305 0 -430 -1
-278 -2z" />
  </g>
  <g transform="translate(0.000000,128.000000) scale(0.100000,-0.100000)" fill="#3e2f4b" stroke="none">
    <path d="M858 783 c23 -2 59 -2 80 0 20 2 1 4 -43 4 -44 0 -61 -2 -37 -4z" />
    <path d="M435 760 c3 -5 8 -10 11 -10 3 0 2 5 -1 10 -3 6 -8 10 -11 10 -3 0
-2 -4 1 -10z" />
    <path d="M441 733 c-1 -6 -4 -20 -7 -30 -5 -17 -5 -17 6 0 6 10 9 23 6 30 -3
9 -5 9 -5 0z" />
    <path d="M990 695 c-8 -10 -37 -15 -93 -18 l-82 -3 81 -2 c70 -2 83 1 99 18
10 11 16 20 13 20 -3 0 -11 -7 -18 -15z" />
    <path d="M232 686 c7 -8 15 -12 17 -11 5 6 -10 25 -20 25 -5 0 -4 -6 3 -14z" />
    <path d="M516 685 c4 -8 11 -15 16 -15 6 0 5 6 -2 15 -7 8 -14 15 -16 15 -2 0
-1 -7 2 -15z" />
    <path d="M416 665 c-3 -9 -6 -22 -5 -28 0 -7 5 -1 10 12 5 13 8 26 5 28 -2 2
-6 -3 -10 -12z" />
    <path d="M902 633 c48 -2 129 -2 180 0 51 1 12 3 -87 3 -99 0 -141 -2 -93 -3z" />
    <path d="M390 590 c0 -7 3 -10 7 -7 3 4 3 10 0 14 -4 3 -7 0 -7 -7z" />
    <path d="M361 514 c0 -11 3 -14 6 -6 3 7 2 16 -1 19 -3 4 -6 -2 -5 -13z" />
    <path d="M902 523 c48 -2 129 -2 180 0 51 1 12 3 -87 3 -99 0 -141 -2 -93 -3z" />
    <path d="M945 483 c102 -3 133 -7 147 -20 22 -20 24 -10 2 11 -13 13 -39 16
-147 14 l-132 -2 130 -3z" />
    <path d="M1265 390 c-3 -5 -1 -10 4 -10 6 0 11 5 11 10 0 6 -2 10 -4 10 -3 0
-8 -4 -11 -10z" />
    <path d="M883 373 c37 -2 96 -2 130 0 34 2 4 3 -68 3 -71 0 -99 -1 -62 -3z" />
  </g>
  <g transform="translate(0.000000,128.000000) scale(0.100000,-0.100000)" fill="#f28b34" stroke="none">
    <path d="M410 990 c0 -13 7 -20 20 -20 13 0 20 7 20 20 0 13 -7 20 -20 20 -13
0 -20 -7 -20 -20z" />
    <path d="M820 430 c0 -20 5 -20 128 -18 105 3 127 6 127 18 0 12 -22 15 -127
18 -123 2 -128 2 -128 -18z" />
  </g>
  <g transform="translate(0.000000,128.000000) scale(0.100000,-0.100000)" fill="#0c0e0f" stroke="none">
    <path d="M63 1093 c4 -3 10 -3 14 0 3 4 0 7 -7 7 -7 0 -10 -3 -7 -7z" />
    <path d="M1045 1090 c3 -5 8 -10 11 -10 2 0 4 5 4 10 0 6 -5 10 -11 10 -5 0
-7 -4 -4 -10z" />
    <path d="M1103 1093 c4 -3 10 -3 14 0 3 4 0 7 -7 7 -7 0 -10 -3 -7 -7z" />
    <path d="M65 1060 c-3 -6 1 -7 9 -4 18 7 21 14 7 14 -6 0 -13 -4 -16 -10z" />
    <path d="M244 1028 c-4 -7 -3 -8 4 -4 12 7 16 16 8 16 -3 0 -8 -5 -12 -12z" />
    <path d="M30 1010 c0 -7 3 -10 7 -7 3 4 3 10 0 14 -4 3 -7 0 -7 -7z" />
    <path d="M1240 1010 c0 -7 3 -10 7 -7 3 4 3 10 0 14 -4 3 -7 0 -7 -7z" />
    <path d="M263 1003 c4 -3 10 -3 14 0 3 4 0 7 -7 7 -7 0 -10 -3 -7 -7z" />
    <path d="M140 980 c0 -5 5 -10 10 -10 6 0 10 5 10 10 0 6 -4 10 -10 10 -5 0
-10 -4 -10 -10z" />
    <path d="M410 978 c0 -4 9 -8 20 -8 11 0 20 4 20 8 0 4 -9 8 -20 8 -11 0 -20
-4 -20 -8z" />
    <path d="M169 953 c-13 -16 -12 -17 4 -4 9 7 17 15 17 17 0 8 -8 3 -21 -13z" />
    <path d="M980 776 c0 -2 8 -10 18 -17 15 -13 16 -12 3 4 -13 16 -21 21 -21 13z" />
    <path d="M424 762 c-10 -7 -27 -42 -20 -42 2 0 11 11 20 25 17 26 17 29 0 17z" />
    <path d="M1005 719 c-4 -6 -5 -12 -2 -15 2 -3 7 2 10 11 7 17 1 20 -8 4z" />
    <path d="M386 683 c-6 -14 -5 -15 5 -6 7 7 10 15 7 18 -3 3 -9 -2 -12 -12z" />
    <path d="M800 686 c0 -2 7 -7 16 -10 8 -3 12 -2 9 4 -6 10 -25 14 -25 6z" />
    <path d="M414 658 c-4 -7 -3 -8 4 -4 12 7 16 16 8 16 -3 0 -8 -5 -12 -12z" />
    <path d="M1167 629 c7 -7 15 -10 18 -7 3 3 -2 9 -12 12 -14 6 -15 5 -6 -5z" />
    <path d="M356 603 c-6 -14 -5 -15 5 -6 7 7 10 15 7 18 -3 3 -9 -2 -12 -12z" />
    <path d="M1150 580 c0 -11 5 -20 10 -20 6 0 10 9 10 20 0 11 -4 20 -10 20 -5
0 -10 -9 -10 -20z" />
    <path d="M535 520 c-27 -27 -47 -52 -44 -55 3 -2 27 18 54 45 27 27 47 52 44
55 -3 2 -27 -18 -54 -45z" />
    <path d="M570 505 c-35 -36 -60 -65 -54 -65 6 0 36 27 67 59 50 52 64 71 54
71 -1 0 -32 -29 -67 -65z" />
    <path d="M326 523 c-6 -14 -5 -15 5 -6 7 7 10 15 7 18 -3 3 -9 -2 -12 -12z" />
    <path d="M364 528 c-4 -7 -3 -8 4 -4 7 4 12 9 12 12 0 8 -9 4 -16 -8z" />
    <path d="M800 536 c0 -2 7 -7 16 -10 8 -3 12 -2 9 4 -6 10 -25 14 -25 6z" />
    <path d="M1090 470 c0 -7 3 -10 7 -7 3 4 3 10 0 14 -4 3 -7 0 -7 -7z" />
    <path d="M335 449 c-4 -6 -5 -12 -2 -15 2 -3 7 2 10 11 7 17 1 20 -8 4z" />
    <path d="M800 386 c0 -2 7 -7 16 -10 8 -3 12 -2 9 4 -6 10 -25 14 -25 6z" />
    <path d="M1250 336 c0 -2 7 -6 15 -10 8 -3 15 -1 15 4 0 6 -7 10 -15 10 -8 0
-15 -2 -15 -4z" />
    <path d="M65 220 c3 -5 8 -10 11 -10 3 0 2 5 -1 10 -3 6 -8 10 -11 10 -3 0 -2
-4 1 -10z" />
    <path d="M1204 218 c-4 -7 -3 -8 4 -4 7 4 12 9 12 12 0 8 -9 4 -16 -8z" />
  </g>
  <g transform="translate(0.000000,128.000000) scale(0.100000,-0.100000)" fill="#ffc328" stroke="none">
    <path d="M820 580 c0 -20 4 -20 173 -18 145 3 172 5 172 18 0 13 -27 15 -172
18 -169 2 -173 2 -173 -18z" />
  </g>
  <g transform="translate(0.000000,128.000000) scale(0.100000,-0.100000)" fill="#e5af23" stroke="none">
    <path d="M820 580 c0 -19 6 -20 173 -18 l172 2 -167 3 c-98 2 -168 7 -168 13
0 6 70 11 168 13 l167 3 -172 2 c-167 2 -173 1 -173 -18z" />
  </g>
  <g transform="translate(0.000000,128.000000) scale(0.100000,-0.100000)" fill="#151e23" stroke="none">
    <path d="M1203 1093 c4 -3 10 -3 14 0 3 4 0 7 -7 7 -7 0 -10 -3 -7 -7z" />
    <path d="M29 1073 c-13 -16 -12 -17 4 -4 9 7 17 15 17 17 0 8 -8 3 -21 -13z" />
    <path d="M1230 1086 c0 -2 8 -10 18 -17 15 -13 16 -12 3 4 -13 16 -21 21 -21
13z" />
    <path d="M33 965 c0 -27 2 -38 4 -22 2 15 2 37 0 50 -2 12 -4 0 -4 -28z" />
    <path d="M131 994 c-18 -21 -6 -30 14 -11 8 9 15 18 15 21 0 11 -15 5 -29 -10z" />
    <path d="M1243 965 c0 -27 2 -38 4 -22 2 15 2 37 0 50 -2 12 -4 0 -4 -28z" />
    <path d="M294 978 c-4 -7 -3 -8 4 -4 12 7 16 16 8 16 -3 0 -8 -5 -12 -12z" />
    <path d="M5 790 c3 -5 8 -10 11 -10 3 0 2 5 -1 10 -3 6 -8 10 -11 10 -3 0 -2
-4 1 -10z" />
    <path d="M975 780 c3 -5 8 -10 11 -10 3 0 2 5 -1 10 -3 6 -8 10 -11 10 -3 0
-2 -4 1 -10z" />
    <path d="M0 730 c0 -7 3 -10 7 -7 3 4 3 10 0 14 -4 3 -7 0 -7 -7z" />
    <path d="M213 693 c4 -3 10 -3 14 0 3 4 0 7 -7 7 -7 0 -10 -3 -7 -7z" />
    <path d="M498 693 c7 -3 16 -2 19 1 4 3 -2 6 -13 5 -11 0 -14 -3 -6 -6z" />
    <path d="M189 623 l-34 -38 38 34 c34 33 42 41 34 41 -2 0 -19 -17 -38 -37z" />
    <path d="M366 633 c-6 -14 -5 -15 5 -6 7 7 10 15 7 18 -3 3 -9 -2 -12 -12z" />
    <path d="M1190 611 c0 -6 4 -13 10 -16 6 -3 7 1 4 9 -7 18 -14 21 -14 7z" />
    <path d="M385 579 c-4 -6 -5 -12 -2 -15 2 -3 7 2 10 11 7 17 1 20 -8 4z" />
    <path d="M336 553 c-6 -14 -5 -15 5 -6 7 7 10 15 7 18 -3 3 -9 -2 -12 -12z" />
    <path d="M1180 543 c-22 -23 -23 -25 -4 -15 12 6 24 18 28 27 3 8 4 15 3 15
-1 0 -13 -12 -27 -27z" />
    <path d="M355 499 c-4 -6 -5 -12 -2 -15 2 -3 7 2 10 11 7 17 1 20 -8 4z" />
    <path d="M306 473 c-6 -14 -5 -15 5 -6 7 7 10 15 7 18 -3 3 -9 -2 -12 -12z" />
    <path d="M234 448 c-4 -7 -3 -8 4 -4 12 7 16 16 8 16 -3 0 -8 -5 -12 -12z" />
    <path d="M325 419 c-4 -6 -5 -12 -2 -15 2 -3 7 2 10 11 7 17 1 20 -8 4z" />
    <path d="M281 394 c0 -11 3 -14 6 -6 3 7 2 16 -1 19 -3 4 -6 -2 -5 -13z" />
    <path d="M1094 398 c-4 -7 -3 -8 4 -4 7 4 12 9 12 12 0 8 -9 4 -16 -8z" />
    <path d="M1270 390 c0 -7 3 -10 7 -7 3 4 3 10 0 14 -4 3 -7 0 -7 -7z" />
    <path d="M1243 333 c4 -3 10 -3 14 0 3 4 0 7 -7 7 -7 0 -10 -3 -7 -7z" />
    <path d="M1234 258 c-4 -7 -3 -8 4 -4 7 4 12 9 12 12 0 8 -9 4 -16 -8z" />
    <path d="M20 216 c0 -2 8 -10 18 -17 15 -13 16 -12 3 4 -13 16 -21 21 -21 13z" />
    <path d="M1239 203 c-13 -16 -12 -17 4 -4 16 13 21 21 13 21 -2 0 -10 -8 -17
-17z" />
    <path d="M63 183 c4 -3 10 -3 14 0 3 4 0 7 -7 7 -7 0 -10 -3 -7 -7z" />
    <path d="M1203 183 c4 -3 10 -3 14 0 3 4 0 7 -7 7 -7 0 -10 -3 -7 -7z" />
  </g>
  <g transform="translate(0.000000,128.000000) scale(0.100000,-0.100000)" fill="#26c3e9" stroke="none">
    <path d="M124 999 c-3 -6 -1 -16 5 -22 8 -8 14 -8 22 0 12 12 4 33 -11 33 -5
0 -12 -5 -16 -11z" />
    <path d="M825 740 c-13 -21 9 -30 76 -30 62 0 69 2 69 20 0 18 -7 20 -69 20
-39 0 -73 -4 -76 -10z" />
  </g>
  <g transform="translate(0.000000,128.000000) scale(0.100000,-0.100000)" fill="#bb9cd5" stroke="none">
    <path d="M1210 1096 c0 -2 7 -7 16 -10 8 -3 12 -2 9 4 -6 10 -25 14 -25 6z" />
    <path d="M410 750 c0 -7 3 -10 7 -7 3 4 3 10 0 14 -4 3 -7 0 -7 -7z" />
    <path d="M390 700 c0 -7 3 -10 7 -7 3 4 3 10 0 14 -4 3 -7 0 -7 -7z" />
    <path d="M155 638 l-60 -63 63 60 c34 33 62 61 62 62 0 8 -10 -1 -65 -59z" />
    <path d="M480 681 c0 -6 4 -13 10 -16 6 -3 7 1 4 9 -7 18 -14 21 -14 7z" />
    <path d="M380 670 c0 -7 3 -10 7 -7 3 4 3 10 0 14 -4 3 -7 0 -7 -7z" />
    <path d="M360 620 c0 -7 3 -10 7 -7 3 4 3 10 0 14 -4 3 -7 0 -7 -7z" />
    <path d="M350 590 c0 -7 3 -10 7 -7 3 4 3 10 0 14 -4 3 -7 0 -7 -7z" />
    <path d="M626 577 c3 -10 9 -15 12 -12 3 3 0 11 -7 18 -10 9 -11 8 -5 -6z" />
    <path d="M535 520 l-49 -55 54 52 c30 29 52 54 50 56 -3 1 -27 -22 -55 -53z" />
    <path d="M330 540 c0 -7 3 -10 7 -7 3 4 3 10 0 14 -4 3 -7 0 -7 -7z" />
    <path d="M570 493 l-55 -58 58 55 c53 50 62 60 54 60 -1 0 -27 -26 -57 -57z" />
    <path d="M320 510 c0 -7 3 -10 7 -7 3 4 3 10 0 14 -4 3 -7 0 -7 -7z" />
    <path d="M236 467 c3 -10 9 -15 12 -12 3 3 0 11 -7 18 -10 9 -11 8 -5 -6z" />
    <path d="M300 460 c0 -7 3 -10 7 -7 3 4 3 10 0 14 -4 3 -7 0 -7 -7z" />
    <path d="M330 430 c0 -7 3 -10 7 -7 3 4 3 10 0 14 -4 3 -7 0 -7 -7z" />
    <path d="M285 419 c-4 -6 -5 -12 -2 -15 2 -3 7 2 10 11 7 17 1 20 -8 4z" />
    <path d="M47 189 c7 -7 15 -10 18 -7 3 3 -2 9 -12 12 -14 6 -15 5 -6 -5z" />
    <path d="M1220 190 c-9 -6 -10 -10 -3 -10 6 0 15 5 18 10 8 12 4 12 -15 0z" />
  </g>
  <g transform="translate(0.000000,128.000000) scale(0.100000,-0.100000)" fill="#5c486d" stroke="none">
    <path d="M53 1093 c4 -3 10 -3 14 0 3 4 0 7 -7 7 -7 0 -10 -3 -7 -7z" />
    <path d="M133 1043 c4 -3 10 -3 14 0 3 4 0 7 -7 7 -7 0 -10 -3 -7 -7z" />
    <path d="M278 1043 c7 -3 16 -2 19 1 4 3 -2 6 -13 5 -11 0 -14 -3 -6 -6z" />
    <path d="M423 1043 c4 -3 10 -3 14 0 3 4 0 7 -7 7 -7 0 -10 -3 -7 -7z" />
    <path d="M315 1030 c3 -5 8 -10 11 -10 3 0 2 5 -1 10 -3 6 -8 10 -11 10 -3 0
-2 -4 1 -10z" />
    <path d="M80 990 c0 -7 3 -10 7 -7 3 4 3 10 0 14 -4 3 -7 0 -7 -7z" />
    <path d="M190 990 c0 -7 3 -10 7 -7 3 4 3 10 0 14 -4 3 -7 0 -7 -7z" />
    <path d="M370 990 c0 -7 3 -10 7 -7 3 4 3 10 0 14 -4 3 -7 0 -7 -7z" />
    <path d="M480 990 c0 -7 3 -10 7 -7 3 4 3 10 0 14 -4 3 -7 0 -7 -7z" />
    <path d="M267 979 c7 -7 15 -10 18 -7 3 3 -2 9 -12 12 -14 6 -15 5 -6 -5z" />
    <path d="M245 950 c3 -5 8 -10 11 -10 3 0 2 5 -1 10 -3 6 -8 10 -11 10 -3 0
-2 -4 1 -10z" />
    <path d="M133 933 c4 -3 10 -3 14 0 3 4 0 7 -7 7 -7 0 -10 -3 -7 -7z" />
    <path d="M963 783 c4 -3 10 -3 14 0 3 4 0 7 -7 7 -7 0 -10 -3 -7 -7z" />
    <path d="M782 735 c0 -16 2 -22 5 -12 2 9 2 23 0 30 -3 6 -5 -1 -5 -18z" />
    <path d="M789 613 c-13 -16 -12 -17 4 -4 9 7 17 15 17 17 0 8 -8 3 -21 -13z" />
    <path d="M1185 620 c3 -5 8 -10 11 -10 3 0 2 5 -1 10 -3 6 -8 10 -11 10 -3 0
-2 -4 1 -10z" />
    <path d="M1202 580 c0 -14 2 -19 5 -12 2 6 2 18 0 25 -3 6 -5 1 -5 -13z" />
    <path d="M795 540 c3 -5 8 -10 11 -10 3 0 2 5 -1 10 -3 6 -8 10 -11 10 -3 0
-2 -4 1 -10z" />
    <path d="M781 444 c0 -11 3 -14 6 -6 3 7 2 16 -1 19 -3 4 -6 -2 -5 -13z" />
    <path d="M1226 243 c-6 -14 -5 -15 5 -6 7 7 10 15 7 18 -3 3 -9 -2 -12 -12z" />
    <path d="M40 246 c0 -2 8 -10 18 -17 15 -13 16 -12 3 4 -13 16 -21 21 -21 13z" />
  </g>
  <g transform="translate(0.000000,128.000000) scale(0.100000,-0.100000)" fill="#cf7b2c" stroke="none">
    <path d="M410 996 c0 -8 4 -17 9 -20 5 -4 7 3 4 14 -6 23 -13 26 -13 6z" />
    <path d="M436 995 c4 -8 8 -15 10 -15 2 0 4 7 4 15 0 8 -4 15 -10 15 -5 0 -7
-7 -4 -15z" />
    <path d="M1154 580 c0 -13 4 -16 10 -10 7 7 7 13 0 20 -6 6 -10 3 -10 -10z" />
    <path d="M823 563 c4 -3 10 -3 14 0 3 4 0 7 -7 7 -7 0 -10 -3 -7 -7z" />
    <path d="M820 430 c0 -19 6 -20 128 -18 l127 2 -123 3 c-104 3 -123 6 -118 18
3 8 1 15 -4 15 -6 0 -10 -9 -10 -20z" />
  </g>
  <g transform="translate(0.000000,128.000000) scale(0.100000,-0.100000)" fill="#705388" stroke="none">
    <path d="M484 688 c-4 -7 -3 -8 4 -4 12 7 16 16 8 16 -3 0 -8 -5 -12 -12z" />
    <path d="M535 620 c27 -27 51 -50 54 -50 3 0 -17 23 -44 50 -27 28 -51 50 -54
50 -3 0 17 -22 44 -50z" />
    <path d="M185 520 c27 -27 51 -50 54 -50 3 0 -17 23 -44 50 -27 28 -51 50 -54
50 -3 0 17 -22 44 -50z" />
    <path d="M290 376 c7 -7 13 -7 20 0 6 6 3 10 -10 10 -13 0 -16 -4 -10 -10z" />
  </g>
  <g transform="translate(0.000000,128.000000) scale(0.100000,-0.100000)" fill="#44405b" stroke="none">
    <path d="M44 1088 c-4 -7 -3 -8 4 -4 12 7 16 16 8 16 -3 0 -8 -5 -12 -12z" />
    <path d="M1050 1090 c0 -7 3 -10 7 -7 3 4 3 10 0 14 -4 3 -7 0 -7 -7z" />
    <path d="M283 973 c4 -3 10 -3 14 0 3 4 0 7 -7 7 -7 0 -10 -3 -7 -7z" />
    <path d="M780 730 c0 -7 3 -10 7 -7 3 4 3 10 0 14 -4 3 -7 0 -7 -7z" />
    <path d="M521 678 c2 -2 29 -25 59 -53 l55 -50 -50 53 c-27 28 -54 52 -59 52
-5 0 -7 -1 -5 -2z" />
    <path d="M782 580 c0 -14 2 -19 5 -12 2 6 2 18 0 25 -3 6 -5 1 -5 -13z" />
    <path d="M781 424 c0 -11 3 -14 6 -6 3 7 2 16 -1 19 -3 4 -6 -2 -5 -13z" />
    <path d="M1240 390 c0 -7 3 -10 7 -7 3 4 3 10 0 14 -4 3 -7 0 -7 -7z" />
  </g>
  <g transform="translate(0.000000,128.000000) scale(0.100000,-0.100000)" fill="#aa9ab6" stroke="none">
    <path d="M780 600 c0 -7 3 -10 7 -7 3 4 3 10 0 14 -4 3 -7 0 -7 -7z" />
    <path d="M1184 538 c-4 -7 -3 -8 4 -4 12 7 16 16 8 16 -3 0 -8 -5 -12 -12z" />
    <path d="M1063 483 c4 -3 10 -3 14 0 3 4 0 7 -7 7 -7 0 -10 -3 -7 -7z" />
    <path d="M789 463 c-13 -16 -12 -17 4 -4 9 7 17 15 17 17 0 8 -8 3 -21 -13z" />
    <path d="M795 390 c3 -5 8 -10 11 -10 3 0 2 5 -1 10 -3 6 -8 10 -11 10 -3 0
-2 -4 1 -10z" />
    <path d="M1063 373 c4 -3 10 -3 14 0 3 4 0 7 -7 7 -7 0 -10 -3 -7 -7z" />
  </g>
  <g transform="translate(0.000000,128.000000) scale(0.100000,-0.100000)" fill="#d6c3e5" stroke="none">
    <path d="M789 763 c-13 -16 -12 -17 4 -4 9 7 17 15 17 17 0 8 -8 3 -21 -13z" />
    <path d="M1010 730 c0 -7 3 -10 7 -7 3 4 3 10 0 14 -4 3 -7 0 -7 -7z" />
    <path d="M795 690 c3 -5 8 -10 11 -10 3 0 2 5 -1 10 -3 6 -8 10 -11 10 -3 0
-2 -4 1 -10z" />
    <path d="M290 430 c0 -7 3 -10 7 -7 3 4 3 10 0 14 -4 3 -7 0 -7 -7z" />
    <path d="M1110 430 c0 -7 3 -10 7 -7 3 4 3 10 0 14 -4 3 -7 0 -7 -7z" />
    <path d="M1214 228 c-4 -7 -3 -8 4 -4 7 4 12 9 12 12 0 8 -9 4 -16 -8z" />
  </g>
  <g transform="translate(0.000000,128.000000) scale(0.100000,-0.100000)" fill="#7a6f87" stroke="none" />
  <g transform="translate(0.000000,128.000000) scale(0.100000,-0.100000)" fill="#462c0e" stroke="none">
    <path d="M1064 430 c0 -13 4 -16 10 -10 7 7 7 13 0 20 -6 6 -10 3 -10 -10z" />
  </g>
  <g transform="translate(0.000000,128.000000) scale(0.100000,-0.100000)" fill="#198199" stroke="none">
    <path d="M142 984 c-7 -8 -8 -14 -3 -14 10 0 25 19 20 25 -2 1 -10 -3 -17 -11z" />
  </g>
  <g transform="translate(0.000000,128.000000) scale(0.100000,-0.100000)" fill="#92581e" stroke="none">
    <path d="M430 980 c-9 -6 -10 -10 -3 -10 6 0 15 5 18 10 8 12 4 12 -15 0z" />
    <path d="M1160 580 c0 -7 3 -10 7 -7 3 4 3 10 0 14 -4 3 -7 0 -7 -7z" />
  </g>
</svg>