<?xml version="1.0" encoding="UTF-8" ?>
<!DOCTYPE svg PUBLIC "-//W3C//DTD SVG 1.1//EN" "http://www.w3.org/Graphics/SVG/1.1/DTD/svg11.dtd">
<svg width="128pt" height="128pt" viewBox="0 0 128 128" version="1.1" xmlns="http://www.w3.org/2000/svg">
<g id="#000000ff">
<path fill="#000000" opacity="1.00" d=" M 0.00 25.88 C 0.97 21.22 5.11 17.57 9.98 17.91 C 41.56 17.84 73.14 17.83 104.72 17.92 C 105.08 18.39 105.80 19.32 106.16 19.79 C 105.77 20.26 104.99 21.22 104.60 21.70 C 77.41 21.71 50.22 21.70 23.02 21.70 C 16.94 21.73 10.75 21.21 4.79 22.80 C 3.79 27.12 3.68 31.58 3.79 36.00 C 43.91 36.00 84.04 36.00 124.16 36.00 C 123.71 31.56 125.85 25.51 121.42 22.55 C 118.31 21.11 114.69 21.86 111.36 21.66 C 110.94 21.19 110.11 20.25 109.69 19.78 C 110.08 19.30 110.87 18.34 111.26 17.86 C 114.96 17.93 118.81 17.45 122.37 18.69 C 125.54 19.88 127.24 23.07 128.00 26.18 L 128.00 88.55 C 127.55 88.98 126.66 89.85 126.22 90.28 C 125.72 89.91 124.72 89.16 124.22 88.79 C 124.16 72.43 124.21 56.06 124.20 39.70 C 107.33 39.56 90.46 39.74 73.60 39.60 C 73.68 61.86 73.68 84.14 73.60 106.40 C 89.03 106.15 104.49 106.66 119.92 106.15 C 125.05 105.51 124.16 98.95 124.26 95.16 C 124.74 94.77 125.71 94.00 126.19 93.61 C 126.65 93.98 127.55 94.71 128.00 95.08 L 128.00 102.09 C 127.03 106.76 122.87 110.42 117.99 110.10 C 81.98 110.16 45.96 110.17 9.96 110.09 C 5.16 110.42 1.16 106.85 0.00 102.36 L 0.00 55.24 C 0.47 54.85 1.42 54.07 1.89 53.68 C 2.37 54.11 3.31 54.98 3.78 55.42 C 3.78 69.62 3.79 83.82 3.76 98.02 C 3.70 100.41 4.21 102.76 4.91 105.04 C 9.40 106.92 14.33 106.28 19.06 106.36 C 35.84 106.38 52.62 106.29 69.40 106.40 C 69.32 84.14 69.32 61.86 69.40 39.60 C 47.53 39.72 25.65 39.62 3.78 39.65 C 3.78 42.61 3.78 45.58 3.77 48.55 C 3.30 48.96 2.36 49.78 1.89 50.19 C 1.42 49.79 0.47 49.00 0.00 48.60 L 0.00 25.88 Z" />
<path fill="#000000" opacity="1.00" d=" M 9.09 26.31 C 11.09 24.36 13.81 23.24 16.61 23.83 C 17.33 24.68 18.06 25.53 18.79 26.37 C 19.03 27.08 19.50 28.51 19.74 29.23 C 18.86 31.91 16.91 33.85 14.23 34.73 C 13.51 34.49 12.08 34.01 11.36 33.76 C 10.52 33.04 9.68 32.32 8.83 31.60 C 8.77 29.83 8.59 28.03 9.09 26.31 M 13.15 27.00 C 10.69 27.95 12.63 31.83 14.63 30.51 C 16.83 29.61 15.39 26.14 13.15 27.00 Z" />
<path fill="#000000" opacity="1.00" d=" M 22.65 27.65 C 24.06 25.91 25.26 23.45 27.88 23.55 C 31.42 22.86 33.02 26.51 34.41 29.00 C 33.30 30.74 32.54 32.96 30.47 33.81 C 28.96 34.09 27.41 34.11 25.87 34.24 C 24.39 32.27 23.27 30.05 22.65 27.65 M 27.18 27.31 C 25.50 28.53 27.27 31.75 29.04 30.50 C 31.81 29.99 29.44 25.37 27.18 27.31 Z" />
<path fill="#000000" opacity="1.00" d=" M 40.43 23.87 C 42.14 23.83 43.84 23.82 45.55 23.84 C 46.40 24.70 47.26 25.56 48.12 26.42 C 48.22 28.59 48.86 31.41 46.66 32.81 C 44.14 35.01 40.05 34.29 38.15 31.63 C 37.50 29.96 37.80 28.15 37.86 26.42 C 38.72 25.57 39.58 24.72 40.43 23.87 M 42.13 27.07 C 41.05 27.69 40.58 29.60 41.84 30.27 C 42.76 31.28 44.90 30.41 44.75 29.02 C 44.99 27.48 43.50 26.64 42.13 27.07 Z" />
<path fill="#000000" opacity="1.00" d=" M 78.31 55.82 C 77.67 52.44 81.04 49.69 84.11 49.32 C 87.78 49.18 91.46 49.22 95.14 49.30 C 98.21 49.26 101.36 51.74 101.14 55.00 C 101.47 57.88 98.76 59.51 96.65 60.79 C 92.24 60.70 87.82 60.71 83.40 60.78 C 81.33 59.69 78.73 58.34 78.31 55.82 M 83.20 53.27 C 81.50 53.67 81.52 56.37 83.27 56.67 C 87.68 57.10 92.20 57.12 96.61 56.62 C 97.78 55.61 97.85 54.53 96.81 53.38 C 92.33 52.73 87.70 52.80 83.20 53.27 Z" />
<path fill="#000000" opacity="1.00" d=" M 41.66 52.99 C 42.30 50.86 45.75 51.66 45.01 54.00 C 41.27 64.98 36.79 75.75 32.78 86.65 C 32.17 88.30 31.22 89.79 30.23 91.24 C 29.45 90.47 28.67 89.70 27.88 88.94 C 32.80 77.09 36.82 64.86 41.66 52.99 Z" />
<path fill="#000000" opacity="1.00" d=" M 9.37 71.54 C 13.32 66.41 18.25 62.11 22.89 57.62 C 23.69 58.42 24.48 59.21 25.27 60.01 C 21.65 63.80 17.88 67.45 14.20 71.18 C 17.55 74.74 21.42 77.86 24.39 81.75 C 24.63 83.75 23.00 84.82 21.38 83.61 C 17.26 79.72 13.29 75.64 9.37 71.54 Z" />
<path fill="#000000" opacity="1.00" d=" M 48.15 59.66 C 48.96 58.90 49.83 58.20 50.75 57.56 C 55.15 62.16 60.06 66.31 63.98 71.34 C 60.11 75.69 56.03 79.89 51.69 83.76 C 51.00 83.83 49.61 83.96 48.92 84.02 C 49.00 83.35 49.15 82.01 49.23 81.34 C 52.25 77.69 55.90 74.62 59.14 71.18 C 55.51 67.31 51.32 63.94 48.15 59.66 Z" />
<path fill="#000000" opacity="1.00" d=" M 82.41 64.23 C 93.30 64.33 104.20 64.20 115.10 64.29 C 118.83 64.13 121.66 68.60 120.17 71.91 C 119.36 74.45 116.55 75.81 114.03 75.77 C 104.33 75.76 94.63 75.76 84.93 75.77 C 82.80 75.89 81.01 74.52 79.18 73.63 C 78.57 71.47 78.31 69.26 78.63 67.04 C 79.86 66.07 81.12 65.13 82.41 64.23 M 83.18 68.22 C 81.02 68.90 81.86 72.06 84.04 71.85 C 94.02 72.06 104.02 71.97 114.01 71.90 C 116.17 72.42 117.99 69.73 115.95 68.29 C 110.66 67.62 105.29 68.16 99.96 68.00 C 94.37 68.15 88.75 67.67 83.18 68.22 Z" />
<path fill="#000000" opacity="1.00" d=" M 83.52 79.36 C 89.68 79.10 95.85 79.36 102.01 79.24 C 105.09 79.18 108.99 79.38 110.70 82.42 C 112.36 86.05 109.53 90.67 105.47 90.61 C 98.64 90.91 91.79 90.66 84.95 90.74 C 82.24 90.83 79.34 89.25 78.63 86.50 C 77.15 83.19 80.35 79.81 83.52 79.36 M 83.16 83.32 C 81.14 83.88 81.94 87.02 83.98 86.76 C 91.28 86.92 98.60 87.00 105.90 86.71 C 108.06 86.75 108.10 83.22 105.95 83.23 C 98.37 83.00 90.72 82.84 83.16 83.32 Z" />
</g>
<g id="#9d72c2ff">
<path fill="#9d72c2" opacity="1.00" d=" M 106.16 19.79 C 107.34 19.78 108.51 19.78 109.69 19.78 C 110.11 20.25 110.94 21.19 111.36 21.66 C 114.69 21.86 118.31 21.11 121.42 22.55 C 125.85 25.51 123.71 31.56 124.16 36.00 C 84.04 36.00 43.91 36.00 3.79 36.00 C 3.68 31.58 3.79 27.12 4.79 22.80 C 10.75 21.21 16.94 21.73 23.02 21.70 C 50.22 21.70 77.41 21.71 104.60 21.70 C 104.99 21.22 105.77 20.26 106.16 19.79 M 9.09 26.31 C 8.59 28.03 8.77 29.83 8.83 31.60 C 9.68 32.32 10.52 33.04 11.36 33.76 C 12.08 34.01 13.51 34.49 14.23 34.73 C 16.91 33.85 18.86 31.91 19.74 29.23 C 19.50 28.51 19.03 27.08 18.79 26.37 C 18.06 25.53 17.33 24.68 16.61 23.83 C 13.81 23.24 11.09 24.36 9.09 26.31 M 22.65 27.65 C 23.27 30.05 24.39 32.27 25.87 34.24 C 27.41 34.11 28.96 34.09 30.47 33.81 C 32.54 32.96 33.30 30.74 34.41 29.00 C 33.02 26.51 31.42 22.86 27.88 23.55 C 25.26 23.45 24.06 25.91 22.65 27.65 M 40.43 23.87 C 39.58 24.72 38.72 25.57 37.86 26.42 C 37.80 28.15 37.50 29.96 38.15 31.63 C 40.05 34.29 44.14 35.01 46.66 32.81 C 48.86 31.41 48.22 28.59 48.12 26.42 C 47.26 25.56 46.40 24.70 45.55 23.84 C 43.84 23.82 42.14 23.83 40.43 23.87 Z" />
</g>
<g id="#27c6edff">
<path fill="#27c6ed" opacity="1.00" d=" M 13.15 27.00 C 15.39 26.14 16.83 29.61 14.63 30.51 C 12.63 31.83 10.69 27.95 13.15 27.00 Z" />
<path fill="#27c6ed" opacity="1.00" d=" M 83.20 53.27 C 87.70 52.80 92.33 52.73 96.81 53.38 C 97.85 54.53 97.78 55.61 96.61 56.62 C 92.20 57.12 87.68 57.10 83.27 56.67 C 81.52 56.37 81.50 53.67 83.20 53.27 Z" />
</g>
<g id="#f1e8f9ff">
<path fill="#f1e8f9" opacity="1.00" d=" M 27.18 27.31 C 29.44 25.37 31.81 29.99 29.04 30.50 C 27.27 31.75 25.50 28.53 27.18 27.31 Z" />
<path fill="#f1e8f9" opacity="1.00" d=" M 3.78 39.65 C 25.65 39.62 47.53 39.72 69.40 39.60 C 69.32 61.86 69.32 84.14 69.40 106.40 C 52.62 106.29 35.84 106.38 19.06 106.36 C 14.33 106.28 9.40 106.92 4.91 105.04 C 4.21 102.76 3.70 100.41 3.76 98.02 C 3.79 83.82 3.78 69.62 3.78 55.42 C 3.31 54.98 2.37 54.11 1.89 53.68 C 1.89 52.51 1.89 51.35 1.89 50.19 C 2.36 49.78 3.30 48.96 3.77 48.55 C 3.78 45.58 3.78 42.61 3.78 39.65 M 41.66 52.99 C 36.82 64.86 32.80 77.09 27.88 88.94 C 28.67 89.70 29.45 90.47 30.23 91.24 C 31.22 89.79 32.17 88.30 32.78 86.65 C 36.79 75.75 41.27 64.98 45.01 54.00 C 45.75 51.66 42.30 50.86 41.66 52.99 M 9.37 71.54 C 13.29 75.64 17.26 79.72 21.38 83.61 C 23.00 84.82 24.63 83.75 24.39 81.75 C 21.42 77.86 17.55 74.74 14.20 71.18 C 17.88 67.45 21.65 63.80 25.27 60.01 C 24.48 59.21 23.69 58.42 22.89 57.62 C 18.25 62.11 13.32 66.41 9.37 71.54 M 48.15 59.66 C 51.32 63.94 55.51 67.31 59.14 71.18 C 55.90 74.62 52.25 77.69 49.23 81.34 C 49.15 82.01 49.00 83.35 48.92 84.02 C 49.61 83.96 51.00 83.83 51.69 83.76 C 56.03 79.89 60.11 75.69 63.98 71.34 C 60.06 66.31 55.15 62.16 50.75 57.56 C 49.83 58.20 48.96 58.90 48.15 59.66 Z" />
<path fill="#f1e8f9" opacity="1.00" d=" M 73.60 39.60 C 90.46 39.74 107.33 39.56 124.20 39.70 C 124.21 56.06 124.16 72.43 124.22 88.79 C 124.72 89.16 125.72 89.91 126.22 90.28 C 126.21 91.39 126.20 92.50 126.19 93.61 C 125.71 94.00 124.74 94.77 124.26 95.16 C 124.16 98.95 125.05 105.51 119.92 106.15 C 104.49 106.66 89.03 106.15 73.60 106.40 C 73.68 84.14 73.68 61.86 73.60 39.60 M 78.31 55.82 C 78.73 58.34 81.33 59.69 83.40 60.78 C 87.82 60.71 92.24 60.70 96.65 60.79 C 98.76 59.51 101.47 57.88 101.14 55.00 C 101.36 51.74 98.21 49.26 95.14 49.30 C 91.46 49.22 87.78 49.18 84.11 49.32 C 81.04 49.69 77.67 52.44 78.31 55.82 M 82.41 64.23 C 81.12 65.13 79.86 66.07 78.63 67.04 C 78.31 69.26 78.57 71.47 79.18 73.63 C 81.01 74.52 82.80 75.89 84.93 75.77 C 94.63 75.76 104.33 75.76 114.03 75.77 C 116.55 75.81 119.36 74.45 120.17 71.91 C 121.66 68.60 118.83 64.13 115.10 64.29 C 104.20 64.20 93.30 64.33 82.41 64.23 M 83.52 79.36 C 80.35 79.81 77.15 83.19 78.63 86.50 C 79.34 89.25 82.24 90.83 84.95 90.74 C 91.79 90.66 98.64 90.91 105.47 90.61 C 109.53 90.67 112.36 86.05 110.70 82.42 C 108.99 79.38 105.09 79.18 102.01 79.24 C 95.85 79.36 89.68 79.10 83.52 79.36 Z" />
</g>
<g id="#f79434ff">
<path fill="#f79434" opacity="1.00" d=" M 42.13 27.07 C 43.50 26.64 44.99 27.48 44.75 29.02 C 44.90 30.41 42.76 31.28 41.84 30.27 C 40.58 29.60 41.05 27.69 42.13 27.07 Z" />
<path fill="#f79434" opacity="1.00" d=" M 83.18 68.22 C 88.75 67.67 94.37 68.15 99.96 68.00 C 105.29 68.16 110.66 67.62 115.95 68.29 C 117.99 69.73 116.17 72.42 114.01 71.90 C 104.02 71.97 94.02 72.06 84.04 71.85 C 81.86 72.06 81.02 68.90 83.18 68.22 Z" />
<path fill="#f79434" opacity="1.00" d=" M 83.16 83.32 C 90.72 82.84 98.37 83.00 105.95 83.23 C 108.10 83.22 108.06 86.75 105.90 86.71 C 98.60 87.00 91.28 86.92 83.98 86.76 C 81.94 87.02 81.14 83.88 83.16 83.32 Z" />
</g>
</svg>
